<svg xmlns="http://www.w3.org/2000/svg" version="1.1" xmlns:xlink="http://www.w3.org/1999/xlink" xmlns:svgjs="http://svgjs.dev/svgjs" width="1500" height="1500" viewBox="0 0 1500 1500"><rect width="1500" height="1500" fill="#ffffff"></rect><g transform="matrix(0.6666666666666666,0,0,0.6666666666666666,250.90236191192417,28.584615384615347)"><svg viewBox="0 0 171 247" data-background-color="#ffffff" preserveAspectRatio="xMidYMid meet" height="2166" width="1500" xmlns="http://www.w3.org/2000/svg" xmlns:xlink="http://www.w3.org/1999/xlink"><g id="tight-bounds" transform="matrix(1,0,0,1,-0.15430388693903296,-0.09999999999999432)"><svg viewBox="0 0 171.30860777387807 247.2" height="247.2" width="171.30860777387807"><g><svg viewBox="0 0 397.4975999999999 573.5929326429523" height="247.2" width="171.30860777387807"><g><rect width="397.4975999999999" height="13.179302052807905" x="0" y="278.9499457661646" fill="#000000" opacity="1" stroke-width="0" stroke="transparent" fill-opacity="1" class="rect-qz-0" data-fill-palette-color="primary" rx="1%" id="qz-0" data-palette-color="#010c80"></rect></g><g><rect width="397.4975999999999" height="13.179302052807905" x="0" y="309.37964317605093" fill="#000000" opacity="1" stroke-width="0" stroke="transparent" fill-opacity="1" class="rect-qz-1" data-fill-palette-color="primary" rx="1%" id="qz-1" data-palette-color="#010c80"></rect></g><g transform="matrix(1,0,0,1,0.9887999999999693,357.05973594301565)"><svg viewBox="0 0 395.52 216.5331966999366" height="216.5331966999366" width="395.52"><g id="textblocktransform"><svg viewBox="0 0 395.52 216.5331966999366" height="216.5331966999366" width="395.52" id="textblock"><g><svg viewBox="0 0 395.52 146.14272824919442" height="146.14272824919442" width="395.52"><g transform="matrix(1,0,0,1,0,0)"><svg width="395.52" viewBox="2 -37.45 136.36 50.39" height="146.14272824919442" data-palette-color="#010c80"><path d="M2-1.27L2-1.27 2.25-35.64Q2.78-37.45 6.45-37.45L6.45-37.45Q9.81-37.45 12.65-36.55 15.48-35.64 17.41-33.52 19.34-31.4 19.34-28.42L19.34-28.42Q19.34-26.07 18.19-23.88 17.04-21.68 15.38-21.04L15.38-21.04Q18.51-20.61 20.41-17.29 22.31-13.96 22.31-9.42L22.31-9.42Q22.31-6.35 19.87-4.08 17.43-1.81 14.18-0.81 10.94 0.2 7.62 0.2L7.62 0.2Q3.56 0.2 2-1.27ZM6.01-18.36L6.01-18.36Q6.01-14.99 5.91-4.83L5.91-4.83Q7.37-3.17 9.67-3.17L9.67-3.17Q12.7-3.17 15.53-5.69 18.36-8.2 18.36-11.08L18.36-11.08Q18.36-14.65 15.97-16.65 13.57-18.65 9.81-18.65L9.81-18.65Q7.32-18.65 6.01-18.36ZM5.91-21.97L5.91-21.97 8.94-22.02Q12.06-22.02 13.75-23.85 15.43-25.68 15.43-28.22L15.43-28.22Q15.43-30.81 13.72-32.69 12.01-34.57 8.98-34.57L8.98-34.57Q7.62-34.57 5.76-33.98L5.76-33.98Q5.86-31.01 5.88-26.61 5.91-22.22 5.91-21.97ZM26.27-2.34L27.34-33.5 29.59-33.01 30.66-1.42Q30.22 0.1 28.95 0.1L28.95 0.1Q28.07 0.1 27.27-0.61 26.46-1.32 26.27-2.34L26.27-2.34ZM34.66-10.4L34.66-10.4Q34.66-12.35 35.08-14.75 35.49-17.14 36.32-19.78 37.15-22.41 38.81-24.17 40.47-25.93 42.67-25.93L42.67-25.93Q47.36-25.93 50.19-21.7 53.02-17.48 53.02-12.3L53.02-12.3Q53.02-10.11 52.56-7.93 52.09-5.76 51.12-3.66 50.14-1.56 48.31-0.17 46.48 1.22 44.04 1.42L44.04 1.42Q39.55 0.83 37.1-2.42 34.66-5.66 34.66-10.4ZM42.96-23.39L42.96-23.39Q41.25-23.19 40.08-20.26 38.91-17.33 38.57-14.58 38.23-11.82 38.23-9.72L38.23-9.72Q38.23-6.98 39.91-4.66 41.6-2.34 43.7-2.34L43.7-2.34Q45.21-2.34 46.43-3.52 47.65-4.69 48.36-6.42 49.07-8.15 49.43-9.91 49.8-11.67 49.8-13.04L49.8-13.04Q49.8-17.04 47.99-20.02 46.19-23 42.96-23.39ZM71.87-25.2L71.87-25.2 74.06-25.68Q74.06-24.22 74.11-23.39L74.11-23.39Q74.41-12.7 74.41-9.47L74.41-9.47Q74.41-8.35 74.46-5.96 74.5-3.56 74.5-2.34L74.5-2.34Q74.5 0.34 74.33 2.29 74.16 4.25 73.58 6.37 72.99 8.5 71.99 9.84 70.99 11.18 69.16 12.06 67.33 12.94 64.84 12.94L64.84 12.94Q62.69 12.94 57.27 12.3L57.27 12.3Q57.22 11.77 57.1 11.13 56.97 10.5 56.97 10.16L56.97 10.16Q56.97 9.42 57.12 8.98L57.12 8.98Q57.51 9.03 60.17 9.38 62.83 9.72 64.1 9.72L64.1 9.72Q67.47 9.72 69.28 7.67 71.09 5.62 71.14 0L71.14 0Q68.74 1.37 66.11 1.37L66.11 1.37Q63.91 1.37 62.25 0.46 60.59-0.44 59.61-1.83 58.64-3.22 58.02-5.2 57.41-7.18 57.19-9.03 56.97-10.89 56.97-12.99L56.97-12.99Q56.97-18.26 59.29-21.83 61.61-25.39 66.35-25.39L66.35-25.39Q69.13-25.39 71.82-23.68L71.82-23.68Q71.87-24.17 71.87-25.2ZM71.28-4.74L71.28-4.74 71.43-20.51Q71.14-21.39 69.6-21.9 68.06-22.41 66.2-22.41L66.2-22.41Q63.57-22.41 62.1-20 60.64-17.58 60.64-14.11L60.64-14.11Q60.64-12.3 60.83-10.57 61.03-8.84 61.61-6.76 62.2-4.69 63.52-3.42 64.84-2.15 66.79-2.15L66.79-2.15Q68.25-2.15 69.47-2.86 70.7-3.56 71.28-4.74ZM93.4-25.2L93.4-25.2 95.6-25.68Q95.6-24.22 95.64-23.39L95.64-23.39Q95.94-12.7 95.94-9.47L95.94-9.47Q95.94-8.35 95.99-5.96 96.03-3.56 96.03-2.34L96.03-2.34Q96.03 0.34 95.86 2.29 95.69 4.25 95.11 6.37 94.52 8.5 93.52 9.84 92.52 11.18 90.69 12.06 88.86 12.94 86.37 12.94L86.37 12.94Q84.22 12.94 78.8 12.3L78.8 12.3Q78.75 11.77 78.63 11.13 78.51 10.5 78.51 10.16L78.51 10.16Q78.51 9.42 78.65 8.98L78.65 8.98Q79.04 9.03 81.7 9.38 84.37 9.72 85.63 9.72L85.63 9.72Q89 9.72 90.81 7.67 92.62 5.62 92.67 0L92.67 0Q90.27 1.37 87.64 1.37L87.64 1.37Q85.44 1.37 83.78 0.46 82.12-0.44 81.14-1.83 80.17-3.22 79.56-5.2 78.95-7.18 78.73-9.03 78.51-10.89 78.51-12.99L78.51-12.99Q78.51-18.26 80.82-21.83 83.14-25.39 87.88-25.39L87.88-25.39Q90.66-25.39 93.35-23.68L93.35-23.68Q93.4-24.17 93.4-25.2ZM92.81-4.74L92.81-4.74 92.96-20.51Q92.67-21.39 91.13-21.9 89.59-22.41 87.73-22.41L87.73-22.41Q85.1-22.41 83.63-20 82.17-17.58 82.17-14.11L82.17-14.11Q82.17-12.3 82.36-10.57 82.56-8.84 83.14-6.76 83.73-4.69 85.05-3.42 86.37-2.15 88.32-2.15L88.32-2.15Q89.78-2.15 91.01-2.86 92.23-3.56 92.81-4.74ZM119.71-4.74L119.71-4.74 120.2-2.59Q118.05-1.81 113.83-0.85 109.61 0.1 107.56 0.1L107.56 0.1Q105.46 0.1 103.89-1.29 102.33-2.69 101.55-4.86 100.77-7.03 100.4-9.16 100.04-11.28 100.04-13.33L100.04-13.33Q100.04-25.54 111.07-25.54L111.07-25.54Q113.71-25.54 115.71-23.85 117.71-22.17 117.71-19.48L117.71-19.48Q117.71-18.02 116.91-16.89 116.1-15.77 114.95-15.11 113.81-14.45 112.02-13.92 110.24-13.38 108.87-13.13 107.51-12.89 105.6-12.6 103.7-12.3 102.97-12.16L102.97-12.16Q103.01-10.74 103.14-9.67 103.26-8.59 103.63-7.35 103.99-6.1 104.6-5.3 105.21-4.49 106.29-3.96 107.36-3.42 108.83-3.42L108.83-3.42Q110.58-3.42 113.12-3.74 115.66-4.05 117.64-4.39 119.62-4.74 119.71-4.74ZM103.16-15.19L103.16-15.19Q109.8-17.09 114.05-19.19L114.05-19.19Q113.71-20.8 113.12-21.53 112.54-22.27 111.36-22.27L111.36-22.27Q108.39-22.27 105.97-20.21 103.55-18.16 103.16-15.19ZM138.27-18.6L138.27-18.6 136.12-18.75Q135.09-21.48 132.65-21.48L132.65-21.48Q131.58-21.48 130.38-21 129.18-20.51 128.4-20 127.62-19.48 126.35-18.51L126.35-18.51Q126.35-17.82 126.33-14.06 126.3-10.3 126.38-5.71 126.45-1.12 126.55-0.78L126.55-0.78Q126.11 0.68 124.84 0.68L124.84 0.68Q123.96 0.68 123.15-0.02 122.35-0.73 122.15-1.76L122.15-1.76Q123.08-17.43 123.81-25.44L123.81-25.44 126.01-24.95 126.16-21.68Q129.57-24.51 132.02-24.51L132.02-24.51Q134.7-24.51 136.53-23.29 138.36-22.07 138.36-19.73L138.36-19.73Q138.36-18.99 138.27-18.6Z" opacity="1" transform="matrix(1,0,0,1,0,0)" fill="#000000" class="wordmark-text-0" data-fill-palette-color="primary" id="text-0"></path></svg></g></svg></g><g transform="matrix(1,0,0,1,75.54432,180.64351896335126)"><svg viewBox="0 0 244.43135999999998 35.88967773658536" height="35.88967773658536" width="244.43135999999998"><g transform="matrix(1,0,0,1,0,0)"><svg width="244.43135999999998" viewBox="6.05 -43.85 409.96 60.2" height="35.88967773658536" data-palette-color="#77d4fc"><path d="M65.9-21.6Q67.05-21.6 67.58-21.1 68.1-20.6 68.1-19.8L68.1-19.8Q68.1-18.5 67.33-17.5 66.55-16.5 64.9-16.45L64.9-16.45Q60.95-16.4 57.8-17.05L57.8-17.05Q54.3-9.6 49.38-4.67 44.45 0.25 39.65 0.25L39.65 0.25Q35.25 0.25 33.05-4.42 30.85-9.1 30.55-16.95L30.55-16.95Q27.55-8.25 23.78-4 20 0.25 15.75 0.25L15.75 0.25Q10.95 0.25 8.5-5.73 6.05-11.7 6.05-21.8L6.05-21.8Q6.05-29.15 7.35-37.95L7.35-37.95Q7.7-40.45 8.63-41.43 9.55-42.4 11.55-42.4L11.55-42.4Q13.05-42.4 13.88-41.75 14.7-41.1 14.7-39.35L14.7-39.35Q14.7-39 14.6-38L14.6-38Q13.1-27.75 13.1-20.55L13.1-20.55Q13.1-13.85 14.25-10.2 15.4-6.55 17.35-6.55L17.35-6.55Q19.1-6.55 21.58-10.23 24.05-13.9 26.5-21.13 28.95-28.35 30.65-38.35L30.65-38.35Q31.05-40.65 32.13-41.53 33.2-42.4 35.05-42.4L35.05-42.4Q36.6-42.4 37.33-41.73 38.05-41.05 38.05-39.7L38.05-39.7Q38.05-38.9 37.95-38.45L37.95-38.45Q36.55-30.3 36.55-22.15L36.55-22.15Q36.55-16.6 36.93-13.3 37.3-10 38.38-8.28 39.45-6.55 41.5-6.55L41.5-6.55Q43.9-6.55 46.85-10.18 49.8-13.8 52.25-19.2L52.25-19.2Q49.2-21.1 47.65-24.13 46.1-27.15 46.1-31.1L46.1-31.1Q46.1-35.05 47.33-37.77 48.55-40.5 50.68-41.85 52.8-43.2 55.4-43.2L55.4-43.2Q58.6-43.2 60.48-40.9 62.35-38.6 62.35-34.6L62.35-34.6Q62.35-28.95 59.9-22.05L59.9-22.05Q62.45-21.6 65.9-21.6L65.9-21.6ZM51.15-31.45Q51.15-26.55 54.3-24.2L54.3-24.2Q56.25-29.8 56.25-33.45L56.25-33.45Q56.25-35.55 55.7-36.52 55.15-37.5 54.2-37.5L54.2-37.5Q52.85-37.5 52-35.93 51.15-34.35 51.15-31.45L51.15-31.45ZM66.8 0.25Q64.9 0.25 64.12-1.75 63.35-3.75 63.35-8.15L63.35-8.15Q63.35-14.65 65.2-20.5L65.2-20.5Q65.65-21.95 66.67-22.63 67.7-23.3 69.55-23.3L69.55-23.3Q70.55-23.3 70.95-23.05 71.35-22.8 71.35-22.1L71.35-22.1Q71.35-21.3 70.6-18.5L70.6-18.5Q70.1-16.5 69.8-15 69.5-13.5 69.3-11.3L69.3-11.3Q70.95-15.6 73-18.3 75.05-21 77.02-22.15 79-23.3 80.65-23.3L80.65-23.3Q83.9-23.3 83.9-20.05L83.9-20.05Q83.9-19.4 83.45-16.9L83.45-16.9Q83.05-14.9 83.05-14.4L83.05-14.4Q83.05-12.65 84.3-12.65L84.3-12.65Q85.7-12.65 87.9-14.85L87.9-14.85Q88.55-15.5 89.25-15.5L89.25-15.5Q89.9-15.5 90.27-14.93 90.65-14.35 90.65-13.4L90.65-13.4Q90.65-11.55 89.65-10.5L89.65-10.5Q88.25-9.05 86.37-8.03 84.5-7 82.4-7L82.4-7Q79.75-7 78.37-8.35 77-9.7 77-12L77-12Q77-12.75 77.15-13.5L77.15-13.5Q77.25-14.5 77.25-14.85L77.25-14.85Q77.25-15.65 76.7-15.65L76.7-15.65Q75.95-15.65 74.72-13.98 73.5-12.3 72.3-9.55 71.1-6.8 70.35-3.75L70.35-3.75Q69.8-1.4 69.07-0.58 68.35 0.25 66.8 0.25L66.8 0.25ZM92.55-26.6Q90.44-26.6 89.39-27.58 88.34-28.55 88.34-30.3L88.34-30.3Q88.34-32.05 89.72-33.23 91.09-34.4 93.14-34.4L93.14-34.4Q95-34.4 96.14-33.5 97.3-32.6 97.3-30.95L97.3-30.95Q97.3-28.95 96-27.78 94.69-26.6 92.55-26.6L92.55-26.6ZM92.14 0.25Q88.89 0.25 87.42-2.05 85.94-4.35 85.94-8.15L85.94-8.15Q85.94-10.4 86.52-13.93 87.09-17.45 88-20.5L88-20.5Q88.44-22.1 89.19-22.7 89.94-23.3 91.59-23.3L91.59-23.3Q94.14-23.3 94.14-21.6L94.14-21.6Q94.14-20.35 93.19-15.8L93.19-15.8Q92-10.3 92-8.35L92-8.35Q92-6.85 92.39-6.05 92.8-5.25 93.75-5.25L93.75-5.25Q94.64-5.25 96-6.5 97.34-7.75 99.59-10.45L99.59-10.45Q100.19-11.15 100.94-11.15L100.94-11.15Q101.59-11.15 101.97-10.55 102.34-9.95 102.34-8.9L102.34-8.9Q102.34-6.9 101.39-5.8L101.39-5.8Q96.44 0.25 92.14 0.25L92.14 0.25ZM120.59-11.15Q121.24-11.15 121.62-10.55 121.99-9.95 121.99-8.9L121.99-8.9Q121.99-6.9 121.04-5.8L121.04-5.8Q118.89-3.15 116.34-1.45 113.79 0.25 110.49 0.25L110.49 0.25Q100.29 0.25 100.29-14.1L100.29-14.1Q100.29-16.3 100.44-18.55L100.44-18.55 98.49-18.55Q96.99-18.55 96.47-19.1 95.94-19.65 95.94-20.85L95.94-20.85Q95.94-23.65 98.19-23.65L98.19-23.65 101.04-23.65Q101.89-29.15 103.64-33.7 105.39-38.25 107.87-40.95 110.34-43.65 113.19-43.65L113.19-43.65Q115.29-43.65 116.49-41.8 117.69-39.95 117.69-37.15L117.69-37.15Q117.69-29.4 111.19-23.65L111.19-23.65 116.79-23.65Q117.59-23.65 117.94-23.3 118.29-22.95 118.29-22L118.29-22Q118.29-18.55 112.64-18.55L112.64-18.55 106.54-18.55Q106.44-16.05 106.44-14.65L106.44-14.65Q106.44-9.45 107.67-7.35 108.89-5.25 111.54-5.25L111.54-5.25Q113.69-5.25 115.34-6.55 116.99-7.85 119.24-10.45L119.24-10.45Q119.84-11.15 120.59-11.15L120.59-11.15ZM111.84-38.85Q111.09-38.85 110.17-36.98 109.24-35.1 108.42-31.78 107.59-28.45 107.04-24.4L107.04-24.4Q109.99-26.95 111.47-30.13 112.94-33.3 112.94-35.9L112.94-35.9Q112.94-38.85 111.84-38.85L111.84-38.85ZM140.24-11.15Q140.89-11.15 141.27-10.55 141.64-9.95 141.64-8.9L141.64-8.9Q141.64-6.9 140.69-5.8L140.69-5.8Q138.84-3.55 135.47-1.65 132.09 0.25 128.24 0.25L128.24 0.25Q122.99 0.25 120.09-2.6 117.19-5.45 117.19-10.4L117.19-10.4Q117.19-13.85 118.64-16.82 120.09-19.8 122.67-21.55 125.24-23.3 128.49-23.3L128.49-23.3Q131.39-23.3 133.14-21.58 134.89-19.85 134.89-16.9L134.89-16.9Q134.89-13.45 132.42-10.98 129.94-8.5 124.04-7.05L124.04-7.05Q125.29-4.75 128.79-4.75L128.79-4.75Q131.04-4.75 133.92-6.33 136.79-7.9 138.89-10.45L138.89-10.45Q139.49-11.15 140.24-11.15L140.24-11.15ZM127.64-18.4Q125.79-18.4 124.52-16.25 123.24-14.1 123.24-11.05L123.24-11.05 123.24-10.95Q126.19-11.65 127.89-13.05 129.59-14.45 129.59-16.3L129.59-16.3Q129.59-17.25 129.06-17.82 128.54-18.4 127.64-18.4L127.64-18.4ZM193.84-11.2Q194.13-11.3 194.74-11.3L194.74-11.3Q196.44-11.3 196.44-9.1L196.44-9.1Q196.44-7.9 195.91-7.08 195.38-6.25 194.28-6.05L194.28-6.05Q189.74-5.2 185.34-4.15L185.34-4.15 185.19-2.95Q183.78 6.9 179.61 11.63 175.44 16.35 169.19 16.35L169.19 16.35Q165.03 16.35 162.76 14.33 160.49 12.3 160.49 9.15L160.49 9.15Q160.49 3.9 165.19-0.2 169.88-4.3 179.44-7.45L179.44-7.45 180.44-14.5Q180.63-15.7 180.94-17.7L180.94-17.7Q178.59-11.5 174.94-8.45 171.28-5.4 166.78-5.4L166.78-5.4Q162.49-5.4 160.24-8.03 157.99-10.65 157.99-14.8L157.99-14.8Q157.99-16.65 158.38-18.88 158.78-21.1 159.63-24.9L159.63-24.9Q160.38-28.35 160.76-30.4 161.13-32.45 161.13-34.05L161.13-34.05Q161.13-36.45 159.28-36.45L159.28-36.45Q157.84-36.45 155.86-35.02 153.88-33.6 151.69-30.65L151.69-30.65Q150.99-29.7 150.13-29.7L150.13-29.7Q149.44-29.7 148.91-30.38 148.38-31.05 148.38-31.9L148.38-31.9Q148.38-33.45 149.78-35.4L149.78-35.4Q154.88-42.4 161.74-42.4L161.74-42.4Q164.78-42.4 166.51-40.55 168.24-38.7 168.24-35.1L168.24-35.1Q168.24-32.5 167.76-29.78 167.28-27.05 166.34-22.85L166.34-22.85Q165.74-20.35 165.44-18.82 165.13-17.3 165.13-16.3L165.13-16.3Q165.13-13.75 166.03-12.65 166.94-11.55 169.19-11.55L169.19-11.55Q171.88-11.55 174.71-14.53 177.53-17.5 179.81-23.55 182.09-29.6 183.09-38.35L183.09-38.35Q183.34-40.55 184.24-41.48 185.13-42.4 186.84-42.4L186.84-42.4Q190.34-42.4 190.34-38.9L190.34-38.9Q190.34-38.3 190.28-37.95L190.28-37.95Q189.24-30.5 188.34-24.5L188.34-24.5Q187.84-20.9 187.26-17.1 186.69-13.3 186.13-9.4L186.13-9.4Q189.78-10.4 193.84-11.2L193.84-11.2ZM178.63-1.85L178.69-2.2Q166.59 2 166.59 8L166.59 8Q166.59 9.4 167.46 10.33 168.34 11.25 169.94 11.25L169.94 11.25Q176.88 11.25 178.63-1.85L178.63-1.85ZM218.88-15.35Q219.53-15.35 219.88-14.7 220.23-14.05 220.23-13.05L220.23-13.05Q220.23-10.65 218.78-10.2L218.78-10.2Q215.78-9.15 212.18-9L212.18-9Q211.23-4.8 208.43-2.27 205.63 0.25 202.08 0.25L202.08 0.25Q199.08 0.25 196.96-1.2 194.83-2.65 193.73-5.05 192.63-7.45 192.63-10.25L192.63-10.25Q192.63-14.05 194.08-17.03 195.53-20 198.08-21.68 200.63-23.35 203.73-23.35L203.73-23.35Q207.53-23.35 209.86-20.73 212.18-18.1 212.58-14.25L212.58-14.25Q214.93-14.4 218.18-15.25L218.18-15.25Q218.58-15.35 218.88-15.35L218.88-15.35ZM202.48-5.05Q204.08-5.05 205.26-6.35 206.43-7.65 206.83-10.1L206.83-10.1Q205.28-11.15 204.46-12.85 203.63-14.55 203.63-16.45L203.63-16.45Q203.63-17.25 203.78-18.05L203.78-18.05 203.53-18.05Q201.53-18.05 200.21-16.13 198.88-14.2 198.88-10.7L198.88-10.7Q198.88-7.95 199.96-6.5 201.03-5.05 202.48-5.05L202.48-5.05ZM221.03 0.25Q218.78 0.25 217.36-1.83 215.93-3.9 215.93-7L215.93-7Q215.93-10.75 216.43-13.88 216.93-17 218.08-20.5L218.08-20.5Q218.58-22 219.48-22.65 220.38-23.3 222.33-23.3L222.33-23.3Q223.43-23.3 223.86-22.95 224.28-22.6 224.28-21.9L224.28-21.9Q224.28-21.5 223.73-19.2L223.73-19.2Q223.23-17.35 222.93-15.85L222.93-15.85Q221.93-10.6 221.93-8.85L221.93-8.85Q221.93-7.8 222.18-7.38 222.43-6.95 222.98-6.95L222.98-6.95Q223.73-6.95 224.86-8.45 225.98-9.95 227.26-13 228.53-16.05 229.73-20.5L229.73-20.5Q230.13-22 230.96-22.65 231.78-23.3 233.43-23.3L233.43-23.3Q234.58-23.3 235.03-23.03 235.48-22.75 235.48-22L235.48-22Q235.48-20.75 234.23-15.15L234.23-15.15Q232.83-8.75 232.83-7.25L232.83-7.25Q232.83-6.3 233.23-5.78 233.63-5.25 234.28-5.25L234.28-5.25Q235.28-5.25 236.66-6.48 238.03-7.7 240.33-10.45L240.33-10.45Q240.93-11.15 241.68-11.15L241.68-11.15Q242.33-11.15 242.71-10.55 243.08-9.95 243.08-8.9L243.08-8.9Q243.08-6.9 242.13-5.8L242.13-5.8Q239.98-3.15 237.51-1.45 235.03 0.25 231.88 0.25L231.88 0.25Q229.48 0.25 228.36-1.6 227.23-3.45 227.23-6.8L227.23-6.8Q226.38-3.4 224.68-1.58 222.98 0.25 221.03 0.25L221.03 0.25ZM242.58 0.25Q240.68 0.25 239.9-1.75 239.13-3.75 239.13-8.15L239.13-8.15Q239.13-14.65 240.98-20.5L240.98-20.5Q241.43-21.95 242.45-22.63 243.48-23.3 245.33-23.3L245.33-23.3Q246.33-23.3 246.73-23.05 247.13-22.8 247.13-22.1L247.13-22.1Q247.13-21.3 246.38-18.5L246.38-18.5Q245.88-16.5 245.58-15 245.28-13.5 245.08-11.3L245.08-11.3Q246.73-15.6 248.78-18.3 250.83-21 252.8-22.15 254.78-23.3 256.43-23.3L256.43-23.3Q259.68-23.3 259.68-20.05L259.68-20.05Q259.68-19.4 259.23-16.9L259.23-16.9Q258.83-14.9 258.83-14.4L258.83-14.4Q258.83-12.65 260.08-12.65L260.08-12.65Q261.48-12.65 263.68-14.85L263.68-14.85Q264.33-15.5 265.03-15.5L265.03-15.5Q265.68-15.5 266.05-14.93 266.43-14.35 266.43-13.4L266.43-13.4Q266.43-11.55 265.43-10.5L265.43-10.5Q264.03-9.05 262.15-8.03 260.28-7 258.18-7L258.18-7Q255.53-7 254.15-8.35 252.78-9.7 252.78-12L252.78-12Q252.78-12.75 252.93-13.5L252.93-13.5Q253.03-14.5 253.03-14.85L253.03-14.85Q253.03-15.65 252.48-15.65L252.48-15.65Q251.73-15.65 250.5-13.98 249.28-12.3 248.08-9.55 246.88-6.8 246.13-3.75L246.13-3.75Q245.58-1.4 244.85-0.58 244.13 0.25 242.58 0.25L242.58 0.25ZM321.32-11.15Q321.97-11.15 322.35-10.55 322.72-9.95 322.72-8.9L322.72-8.9Q322.72-6.95 321.77-5.8L321.77-5.8Q316.82 0.25 311.22 0.25L311.22 0.25Q306.37 0.25 303.47-3.5 300.57-7.25 300.57-14.25L300.57-14.25Q300.57-15.95 300.72-17.65L300.72-17.65Q297.42-17.05 293.52-16.75L293.52-16.75Q290.92-16.55 289.97-16.5L289.97-16.5Q288.97-11.4 287.17-4L287.17-4Q286.12 0.35 283.17 0.35L283.17 0.35Q279.97 0.35 279.97-2.55L279.97-2.55Q279.97-3.2 280.22-4.35L280.22-4.35Q281.92-11.2 282.92-15.95L282.92-15.95 280.52-15.85Q278.87-15.85 278.12-16.43 277.37-17 277.37-18.3L277.37-18.3Q277.37-19.95 278.32-20.73 279.27-21.5 281.47-21.6L281.47-21.6 284.12-21.7Q285.42-28.75 285.42-32.45L285.42-32.45Q285.42-34.8 284.72-35.65 284.02-36.5 282.87-36.5L282.87-36.5Q279.37-36.5 274.97-30.65L274.97-30.65Q274.32-29.8 273.52-29.8L273.52-29.8Q272.82-29.8 272.32-30.45 271.82-31.1 271.82-32.1L271.82-32.1Q271.82-33.65 273.07-35.4L273.07-35.4Q275.27-38.45 278.62-40.43 281.97-42.4 285.42-42.4L285.42-42.4Q288.67-42.4 290.45-40.18 292.22-37.95 292.22-33.25L292.22-33.25Q292.22-29.1 291.02-22L291.02-22 295.92-22.25Q299.07-22.4 301.32-22.75L301.32-22.75Q302.22-28.25 304.07-33.05 305.92-37.85 308.67-40.85 311.42-43.85 314.82-43.85L314.82-43.85Q317.32-43.85 318.77-41.88 320.22-39.9 320.22-36.7L320.22-36.7Q320.22-24.3 307.57-19.5L307.57-19.5Q307.42-17.5 307.42-15.35L307.42-15.35Q307.42-10.1 308.72-7.9 310.02-5.7 312.37-5.7L312.37-5.7Q314.42-5.7 316.12-6.78 317.82-7.85 319.97-10.45L319.97-10.45Q320.57-11.15 321.32-11.15L321.32-11.15ZM314.57-39.5Q313.47-39.5 312.25-37.5 311.02-35.5 309.92-32.05 308.82-28.6 308.17-24.5L308.17-24.5Q312.17-26.15 314.07-29.2 315.97-32.25 315.97-37.05L315.97-37.05Q315.97-38.2 315.57-38.85 315.17-39.5 314.57-39.5L314.57-39.5ZM347.47-11.15Q348.12-11.15 348.5-10.55 348.87-9.95 348.87-8.9L348.87-8.9Q348.87-6.9 347.92-5.8L347.92-5.8Q346.07-3.55 342.7-1.65 339.32 0.25 335.47 0.25L335.47 0.25Q330.22 0.25 327.32-2.6 324.42-5.45 324.42-10.4L324.42-10.4Q324.42-13.85 325.87-16.82 327.32-19.8 329.9-21.55 332.47-23.3 335.72-23.3L335.72-23.3Q338.62-23.3 340.37-21.58 342.12-19.85 342.12-16.9L342.12-16.9Q342.12-13.45 339.65-10.98 337.17-8.5 331.27-7.05L331.27-7.05Q332.52-4.75 336.02-4.75L336.02-4.75Q338.27-4.75 341.15-6.33 344.02-7.9 346.12-10.45L346.12-10.45Q346.72-11.15 347.47-11.15L347.47-11.15ZM334.87-18.4Q333.02-18.4 331.75-16.25 330.47-14.1 330.47-11.05L330.47-11.05 330.47-10.95Q333.42-11.65 335.12-13.05 336.82-14.45 336.82-16.3L336.82-16.3Q336.82-17.25 336.3-17.82 335.77-18.4 334.87-18.4L334.87-18.4ZM350.72 0.25Q347.62 0.25 345.77-2 343.92-4.25 343.92-7.9L343.92-7.9Q343.92-11.9 345.77-15.48 347.62-19.05 350.69-21.23 353.77-23.4 357.22-23.4L357.22-23.4Q358.32-23.4 358.69-22.98 359.07-22.55 359.32-21.45L359.32-21.45Q360.37-21.65 361.52-21.65L361.52-21.65Q363.97-21.65 363.97-19.9L363.97-19.9Q363.97-18.85 363.22-14.9L363.22-14.9Q362.07-9.15 362.07-6.9L362.07-6.9Q362.07-6.15 362.44-5.7 362.82-5.25 363.42-5.25L363.42-5.25Q364.37-5.25 365.72-6.48 367.07-7.7 369.37-10.45L369.37-10.45Q369.97-11.15 370.72-11.15L370.72-11.15Q371.37-11.15 371.74-10.55 372.12-9.95 372.12-8.9L372.12-8.9Q372.12-6.9 371.17-5.8L371.17-5.8Q369.12-3.25 366.82-1.5 364.52 0.25 362.37 0.25L362.37 0.25Q360.72 0.25 359.34-0.88 357.97-2 357.27-3.95L357.27-3.95Q354.67 0.25 350.72 0.25L350.72 0.25ZM352.52-4.8Q353.62-4.8 354.62-6.1 355.62-7.4 356.07-9.55L356.07-9.55 357.92-18.75Q355.82-18.7 354.04-17.18 352.27-15.65 351.22-13.15 350.17-10.65 350.17-7.85L350.17-7.85Q350.17-6.3 350.79-5.55 351.42-4.8 352.52-4.8L352.52-4.8ZM371.62 0.25Q369.72 0.25 368.94-1.75 368.17-3.75 368.17-8.15L368.17-8.15Q368.17-14.65 370.02-20.5L370.02-20.5Q370.47-21.95 371.49-22.63 372.52-23.3 374.37-23.3L374.37-23.3Q375.37-23.3 375.77-23.05 376.17-22.8 376.17-22.1L376.17-22.1Q376.17-21.3 375.42-18.5L375.42-18.5Q374.92-16.5 374.62-15 374.31-13.5 374.12-11.3L374.12-11.3Q375.77-15.6 377.81-18.3 379.87-21 381.84-22.15 383.81-23.3 385.47-23.3L385.47-23.3Q388.72-23.3 388.72-20.05L388.72-20.05Q388.72-19.4 388.27-16.9L388.27-16.9Q387.87-14.9 387.87-14.4L387.87-14.4Q387.87-12.65 389.12-12.65L389.12-12.65Q390.52-12.65 392.72-14.85L392.72-14.85Q393.37-15.5 394.06-15.5L394.06-15.5Q394.72-15.5 395.09-14.93 395.47-14.35 395.47-13.4L395.47-13.4Q395.47-11.55 394.47-10.5L394.47-10.5Q393.06-9.05 391.19-8.03 389.31-7 387.22-7L387.22-7Q384.56-7 383.19-8.35 381.81-9.7 381.81-12L381.81-12Q381.81-12.75 381.97-13.5L381.97-13.5Q382.06-14.5 382.06-14.85L382.06-14.85Q382.06-15.65 381.52-15.65L381.52-15.65Q380.77-15.65 379.54-13.98 378.31-12.3 377.12-9.55 375.92-6.8 375.17-3.75L375.17-3.75Q374.62-1.4 373.89-0.58 373.17 0.25 371.62 0.25L371.62 0.25ZM414.61-11.15Q415.26-11.15 415.64-10.55 416.01-9.95 416.01-8.9L416.01-8.9Q416.01-6.9 415.06-5.8L415.06-5.8Q412.91-3.15 410.36-1.45 407.81 0.25 404.51 0.25L404.51 0.25Q394.31 0.25 394.31-14.1L394.31-14.1Q394.31-16.3 394.46-18.55L394.46-18.55 392.51-18.55Q391.01-18.55 390.49-19.1 389.96-19.65 389.96-20.85L389.96-20.85Q389.96-23.65 392.21-23.65L392.21-23.65 395.06-23.65Q395.91-29.15 397.66-33.7 399.41-38.25 401.89-40.95 404.36-43.65 407.21-43.65L407.21-43.65Q409.31-43.65 410.51-41.8 411.71-39.95 411.71-37.15L411.71-37.15Q411.71-29.4 405.21-23.65L405.21-23.65 410.81-23.65Q411.61-23.65 411.96-23.3 412.31-22.95 412.31-22L412.31-22Q412.31-18.55 406.66-18.55L406.66-18.55 400.56-18.55Q400.46-16.05 400.46-14.65L400.46-14.65Q400.46-9.45 401.69-7.35 402.91-5.25 405.56-5.25L405.56-5.25Q407.71-5.25 409.36-6.55 411.01-7.85 413.26-10.45L413.26-10.45Q413.86-11.15 414.61-11.15L414.61-11.15ZM405.86-38.85Q405.11-38.85 404.19-36.98 403.26-35.1 402.44-31.78 401.61-28.45 401.06-24.4L401.06-24.4Q404.01-26.95 405.49-30.13 406.96-33.3 406.96-35.9L406.96-35.9Q406.96-38.85 405.86-38.85L405.86-38.85Z" opacity="1" transform="matrix(1,0,0,1,0,0)" fill="#000000" class="slogan-text-1" data-fill-palette-color="secondary" id="text-1"></path></svg></g></svg></g></svg></g></svg></g><g transform="matrix(1,0,0,1,76.53311999999997,0)"><svg viewBox="0 0 244.43135999999998 244.44915505200777" height="244.44915505200777" width="244.43135999999998"><g><svg xmlns="http://www.w3.org/2000/svg" xmlns:xlink="http://www.w3.org/1999/xlink" version="1.1" x="0" y="0" viewBox="18.595000000000006 20.072248559915202 41.2077514400848 41.2107514400848" enable-background="new 0 0 80 80" xml:space="preserve" height="244.44915505200777" width="244.43135999999998" class="icon-icon-0" data-fill-palette-color="accent" id="icon-0"><g fill="#77d4fc" data-fill-palette-color="accent"><path fill="#000000" d="M25.879 53.758c1.364 1.363 3.583 1.363 4.946-0.001 1.364-1.364 1.364-3.582 0.001-4.946-1.363-1.363-3.582-1.362-4.945 0.002C24.517 50.176 24.516 52.395 25.879 53.758zM27.295 50.227c0.584-0.584 1.533-0.585 2.116-0.002 0.584 0.584 0.584 1.534 0 2.118s-1.534 0.584-2.118 0.001C26.71 51.76 26.711 50.811 27.295 50.227z" data-fill-palette-color="accent"></path><path fill="#000000" d="M57.374 34.837c3.225-3.618 3.26-9.026-0.025-12.311-3.284-3.285-8.693-3.25-12.311-0.025l-0.55-0.549c-0.488-0.488-1.279-0.488-1.768 0-0.488 0.488-0.488 1.279 0 1.768l0.53 0.53-2.048 2.048-0.53-0.53c-0.488-0.488-1.279-0.488-1.768 0s-0.488 1.279 0 1.768l0.53 0.53L23.791 43.711l-0.006-0.006c-0.006 0.006-0.013 0.012-0.019 0.018-1.23 1.23-2.011 2.739-2.354 4.325l-0.003-0.001-0.043 0.2c-0.003 0.017-0.008 0.034-0.011 0.05l-2.76 12.986 13.243-2.807-0.005-0.012c1.584-0.344 3.092-1.123 4.321-2.352 0.007-0.007 0.012-0.014 0.018-0.02l-0.009-0.01L51.81 40.44l0.53 0.53c0.488 0.489 1.28 0.489 1.769 0 0.488-0.488 0.488-1.28 0-1.768l-0.53-0.531 2.047-2.047 0.531 0.53c0.488 0.488 1.279 0.488 1.768 0s0.488-1.28 0-1.768L57.374 34.837zM34.309 54.405c-0.001 0.001 0.003 0.007 0.002 0.009-0.789 0.762-1.728 1.277-2.723 1.543l0.002 0.001-0.05 0.011c-0.184 0.047-0.369 0.088-0.557 0.118l-0.218 0.047v-0.001l-8.913 1.895 0.722-3.409 1.235-5.839c0.011-0.061 0.024-0.121 0.038-0.182l0.066-0.314 0.009 0.008c0.267-0.996 0.781-1.936 1.545-2.725 0 0 0.002 0 0.003 0l2.018-2.018 8.839 8.838L34.309 54.405zM38.095 50.619l-8.839-8.838 11.947-11.948 8.839 8.839L38.095 50.619zM51.81 36.904l-8.839-8.839 2.048-2.048 8.839 8.839L51.81 36.904zM55.606 33.07l-8.801-8.802c2.635-2.258 6.463-2.287 8.775 0.025C57.894 26.607 57.864 30.436 55.606 33.07z" data-fill-palette-color="accent"></path></g></svg></g></svg></g><g></g></svg></g><defs></defs></svg><rect width="171.30860777387807" height="247.2" fill="none" stroke="none" visibility="hidden"></rect></g></svg></g></svg>